<svg xmlns="http://www.w3.org/2000/svg" xmlns:xlink="http://www.w3.org/1999/xlink" width="500" zoomAndPan="magnify" viewBox="0 0 375 112.499997" height="150" preserveAspectRatio="xMidYMid meet" version="1.0"><defs><g/><clipPath id="28437a3161"><path d="M 150.464844 21.304688 L 309.335938 21.304688 L 309.335938 90 L 150.464844 90 Z M 150.464844 21.304688 " clip-rule="nonzero"/></clipPath><clipPath id="fd2aef3843"><path d="M 184.628906 21.304688 L 275.171875 21.304688 C 284.230469 21.304688 292.921875 24.902344 299.328125 31.308594 C 305.738281 37.71875 309.335938 46.40625 309.335938 55.46875 C 309.335938 64.53125 305.738281 73.222656 299.328125 79.628906 C 292.921875 86.035156 284.230469 89.636719 275.171875 89.636719 L 184.628906 89.636719 C 175.570312 89.636719 166.878906 86.035156 160.472656 79.628906 C 154.0625 73.222656 150.464844 64.53125 150.464844 55.46875 C 150.464844 46.40625 154.0625 37.71875 160.472656 31.308594 C 166.878906 24.902344 175.570312 21.304688 184.628906 21.304688 Z M 184.628906 21.304688 " clip-rule="nonzero"/></clipPath></defs><g clip-path="url(#28437a3161)"><g clip-path="url(#fd2aef3843)"><path stroke-linecap="butt" transform="matrix(1.059154, 0, 0, 1.059154, 150.464377, 21.303388)" fill="none" stroke-linejoin="miter" d="M 32.256433 0.00122696 L 117.742556 0.00122696 C 126.295226 0.00122696 134.501215 3.397953 140.549674 9.446413 C 146.601822 15.49856 149.998548 23.700862 149.998548 32.257219 C 149.998548 40.813576 146.601822 49.019565 140.549674 55.068025 C 134.501215 61.116484 126.295226 64.516899 117.742556 64.516899 L 32.256433 64.516899 C 23.703764 64.516899 15.497774 61.116484 9.449315 55.068025 C 3.397167 49.019565 0.000440872 40.813576 0.000440872 32.257219 C 0.000440872 23.700862 3.397167 15.49856 9.449315 9.446413 C 15.497774 3.397953 23.703764 0.00122696 32.256433 0.00122696 Z M 32.256433 0.00122696 " stroke="#62dc00" stroke-width="15.509539" stroke-opacity="1" stroke-miterlimit="4"/></g></g><g fill="#ffffff" fill-opacity="1"><g transform="translate(4.007113, 87.794308)"><g><path d="M 57.734375 -65.28125 L 69.203125 -65.28125 L 69.203125 0 L 56.796875 0 L 56.796875 -41.125 L 40.84375 -15.390625 L 33.484375 -15.390625 L 17.53125 -41.125 L 17.53125 0 L 5.125 0 L 5.125 -65.28125 L 16.6875 -65.28125 L 37.125 -32.265625 Z M 57.734375 -65.28125 "/></g></g></g><g fill="#ffffff" fill-opacity="1"><g transform="translate(78.331438, 87.794308)"><g><path d="M 34.515625 -65.84375 C 39.171875 -65.84375 43.441406 -65.003906 47.328125 -63.328125 C 51.210938 -61.648438 54.554688 -59.285156 57.359375 -56.234375 C 60.160156 -53.191406 62.320312 -49.648438 63.84375 -45.609375 C 65.363281 -41.566406 66.125 -37.210938 66.125 -32.546875 C 66.125 -27.890625 65.363281 -23.539062 63.84375 -19.5 C 62.320312 -15.457031 60.160156 -11.910156 57.359375 -8.859375 C 54.554688 -5.816406 51.210938 -3.453125 47.328125 -1.765625 C 43.441406 -0.0859375 39.171875 0.75 34.515625 0.75 C 29.847656 0.75 25.570312 -0.0859375 21.6875 -1.765625 C 17.800781 -3.453125 14.441406 -5.816406 11.609375 -8.859375 C 8.785156 -11.910156 6.609375 -15.457031 5.078125 -19.5 C 3.554688 -23.539062 2.796875 -27.890625 2.796875 -32.546875 C 2.796875 -37.210938 3.554688 -41.566406 5.078125 -45.609375 C 6.609375 -49.648438 8.785156 -53.191406 11.609375 -56.234375 C 14.441406 -59.285156 17.800781 -61.648438 21.6875 -63.328125 C 25.570312 -65.003906 29.847656 -65.84375 34.515625 -65.84375 Z M 34.515625 -11.75 C 38.492188 -11.75 41.878906 -12.664062 44.671875 -14.5 C 47.472656 -16.332031 49.632812 -18.816406 51.15625 -21.953125 C 52.675781 -25.097656 53.4375 -28.628906 53.4375 -32.546875 C 53.4375 -36.523438 52.675781 -40.082031 51.15625 -43.21875 C 49.632812 -46.363281 47.472656 -48.851562 44.671875 -50.6875 C 41.878906 -52.519531 38.492188 -53.4375 34.515625 -53.4375 C 30.535156 -53.4375 27.128906 -52.519531 24.296875 -50.6875 C 21.460938 -48.851562 19.285156 -46.363281 17.765625 -43.21875 C 16.242188 -40.082031 15.484375 -36.523438 15.484375 -32.546875 C 15.484375 -28.628906 16.242188 -25.097656 17.765625 -21.953125 C 19.285156 -18.816406 21.460938 -16.332031 24.296875 -14.5 C 27.128906 -12.664062 30.535156 -11.75 34.515625 -11.75 Z M 34.515625 -11.75 "/></g></g></g><g fill="#ffffff" fill-opacity="1"><g transform="translate(312.514344, 87.794308)"><g><path d="M 26.109375 -65.28125 C 33.328125 -65.28125 39.484375 -63.878906 44.578125 -61.078125 C 49.679688 -58.285156 53.582031 -54.445312 56.28125 -49.5625 C 58.988281 -44.6875 60.34375 -39.046875 60.34375 -32.640625 C 60.34375 -26.296875 58.988281 -20.664062 56.28125 -15.75 C 53.582031 -10.84375 49.679688 -6.988281 44.578125 -4.1875 C 39.484375 -1.394531 33.328125 0 26.109375 0 C 26.109375 0 25.410156 0 24.015625 0 C 22.617188 0 20.878906 0 18.796875 0 C 16.710938 0 14.613281 0 12.5 0 C 10.382812 0 8.625 0 7.21875 0 C 5.820312 0 5.125 0 5.125 0 L 5.125 -65.28125 C 5.125 -65.28125 5.820312 -65.28125 7.21875 -65.28125 C 8.625 -65.28125 10.382812 -65.28125 12.5 -65.28125 C 14.613281 -65.28125 16.710938 -65.28125 18.796875 -65.28125 C 20.878906 -65.28125 22.617188 -65.28125 24.015625 -65.28125 C 25.410156 -65.28125 26.109375 -65.28125 26.109375 -65.28125 Z M 25.828125 -11.84375 C 30.429688 -11.84375 34.378906 -12.710938 37.671875 -14.453125 C 40.972656 -16.191406 43.507812 -18.613281 45.28125 -21.71875 C 47.050781 -24.832031 47.9375 -28.472656 47.9375 -32.640625 C 47.9375 -36.804688 47.050781 -40.425781 45.28125 -43.5 C 43.507812 -46.582031 40.972656 -48.992188 37.671875 -50.734375 C 34.378906 -52.472656 30.429688 -53.34375 25.828125 -53.34375 L 17.53125 -53.34375 L 17.53125 -11.84375 Z M 25.828125 -11.84375 "/></g></g></g></svg>